# xmcd
# 
# Track frame offsets:
#     150
#     21855
#     43577
#     53270
#     86237
#     332550
# 
# Disc length: 4440
# 
# Revision: 2
# Processed by: cddbd v1.5.2PL0 Copyright (c) Steve Scherf et al.
# Submitted via: BonkEnc v1.0.6
# 
DISCID=42115606
DTITLE=Tommy february6 - Love is forever
DYEAR=2003
DGENRE=JPop
TTITLE0=Love is forever
TTITLE1=ふたりのシーサイド
TTITLE2=♪Summer Lemonade Poem♪
TTITLE3=Love is forever (Original Instrumental)
TTITLE4=CCCD
TTITLE5=CCCD
EXTD=YEAR: 2003
EXTT0=
EXTT1=
EXTT2=
EXTT3=
EXTT4=
EXTT5=
PLAYORDER=
